# Blender 4.2.3 LTS
# www.blender.org
mtllib untitled.mtl
o Cube
v 1.000000 1.000000 -1.000000
v 1.000000 -1.000000 -1.000000
v 1.000000 1.000000 1.000000
v 1.000000 -1.000000 1.000000
v -1.000000 1.000000 -1.000000
v -1.000000 -1.000000 -1.000000
v -1.000000 1.000000 1.000000
v -1.000000 -1.000000 1.000000
vn -0.0000 1.0000 -0.0000
vn -0.0000 -0.0000 1.0000
vn -1.0000 -0.0000 -0.0000
vn -0.0000 -1.0000 -0.0000
vn 1.0000 -0.0000 -0.0000
vn -0.0000 -0.0000 -1.0000
vt 0.002914 0.000756
vt 0.995480 0.005481
vt 0.995480 0.994897
vt 0.003702 0.994897
vt 0.000885 0.000816
vt 0.996250 0.002398
vt 0.997500 0.998023
vt 0.002500 0.997398
vt 0.001441 0.001465
vt 0.999055 0.001217
vt 0.999055 0.999822
vt 0.000201 0.999574
vt 0.002158 0.002331
vt 0.992361 0.006269
vt 0.995511 0.996472
vt 0.003733 0.995685
vt 0.005686 0.002331
vt 0.995102 0.003906
vt 0.995889 0.997259
vt 0.004898 0.995685
vt 0.001748 0.003528
vt 0.995102 0.003528
vt 0.995000 1.000000
vt 0.003323 0.996881
s 0
usemtl Material
f 1/1/1 5/2/1 7/3/1 3/4/1
f 4/5/2 3/6/2 7/7/2 8/8/2
f 8/9/3 7/10/3 5/11/3 6/12/3
f 6/13/4 2/14/4 4/15/4 8/16/4
f 2/17/5 1/18/5 3/19/5 4/20/5
f 6/21/6 5/22/6 1/23/6 2/24/6
